<svg xmlns="http://www.w3.org/2000/svg" version="1.1" xmlns:xlink="http://www.w3.org/1999/xlink" xmlns:svgjs="http://svgjs.dev/svgjs" width="1500" height="1500" viewBox="0 0 1500 1500"><rect width="1500" height="1500" fill="#000000"></rect><g transform="matrix(0.6666666666666666,0,0,0.6666666666666666,249.39393939393938,587.0189104084129)"><svg viewBox="0 0 396 129" data-background-color="#ffffff" preserveAspectRatio="xMidYMid meet" height="488" width="1500" xmlns="http://www.w3.org/2000/svg" xmlns:xlink="http://www.w3.org/1999/xlink"><g id="tight-bounds" transform="matrix(1,0,0,1,0.2400000000000091,0.12467384420517647)"><svg viewBox="0 0 395.52 128.75065231158962" height="128.75065231158962" width="395.52"><g><svg viewBox="0 0 395.52 128.75065231158962" height="128.75065231158962" width="395.52"><g><svg viewBox="0 0 395.52 128.75065231158962" height="128.75065231158962" width="395.52"><g id="textblocktransform"><svg viewBox="0 0 395.52 128.75065231158962" height="128.75065231158962" width="395.52" id="textblock"><g><svg viewBox="0 0 395.52 128.75065231158962" height="128.75065231158962" width="395.52"><g transform="matrix(1,0,0,1,0,0)"><svg width="395.52" viewBox="2.05 -36.3 157.89 51.4" height="128.75065231158962" data-palette-color="#ad05fc"><path d="M21.8-36.3Q24.8-36.3 26.7-35 28.6-33.7 28.6-31.6L28.6-31.6Q28.6-29.55 26.98-27.5 25.35-25.45 22.78-24.05 20.2-22.65 17.5-22.45L17.5-22.45 17-23.4Q19.65-24.05 21.5-25.98 23.35-27.9 23.35-29.95L23.35-29.95Q23.35-31.6 22.2-32.58 21.05-33.55 19.15-33.55L19.15-33.55Q15.75-33.55 13.05-31.33 10.35-29.1 8.83-25.2 7.3-21.3 7.3-16.4L7.3-16.4Q7.3-10.4 9.3-7 11.3-3.6 15.3-3.6L15.3-3.6Q17.6-3.6 19.73-5.25 21.85-6.9 23.2-9.53 24.55-12.15 24.6-14.95L24.6-14.95 29.35-16.6 29.35 3.55 24.95 5.35 24.95-9.95 24.65-9.95Q23.9-6.8 22.18-4.45 20.45-2.1 18.13-0.85 15.8 0.4 13.3 0.4L13.3 0.4Q9.9 0.4 7.35-1.23 4.8-2.85 3.43-5.85 2.05-8.85 2.05-12.85L2.05-12.85Q2.05-19.4 4.65-24.78 7.25-30.15 11.78-33.23 16.3-36.3 21.8-36.3L21.8-36.3ZM46.8-18.9Q44.55-16.55 42.92-12.78 41.3-9 41.3-5.9L41.3-5.9Q41.3-3.2 42.47-1.38 43.65 0.45 46.25 0.45L46.25 0.45Q48.35 0.45 50.27-0.65 52.2-1.75 53.55-3.5L53.55-3.5 53-4.25Q51.45-3.2 49.95-3.2L49.95-3.2Q47.6-3.2 46.4-4.85 45.2-6.5 45.2-8.85L45.2-8.85Q45.2-12.65 47.15-16.05 49.1-19.45 52.1-22.65L52.1-22.65 51.3-23.35Q47.8-21.15 44.9-21.15L44.9-21.15Q43.2-21.15 41.8-22.68 40.4-24.2 39.65-26.05L39.65-26.05 35.6-21.5Q35.95-20.5 37.5-19.2L37.5-19.2 34.15-12.2 36-11.35 39.25-18.5Q40.1-18.15 40.65-18.05 41.2-17.95 42.15-17.95L42.15-17.95Q44.6-17.95 46.65-19.05L46.65-19.05 46.8-18.9ZM68.9-25.45L69.8-24.4Q66.05-22 63.9-19.05 61.75-16.1 61.75-12.1L61.75-12.1Q61.75-9.85 62.7-7.58 63.65-5.3 65.55-3.8 67.45-2.3 70.09-2.3L70.09-2.3Q72.25-2.3 73.92-3.3 75.59-4.3 76.52-6 77.45-7.7 77.45-9.75L77.45-9.75Q77.45-12.1 76.02-14.55 74.59-17 72.3-18.7 70-20.4 67.59-20.6L67.59-20.6Q68.59-21.6 70-22.7 71.4-23.8 72.84-24.85L72.84-24.85Q76.3-23.7 78.3-20.48 80.3-17.25 80.3-13.3L80.3-13.3Q80.3-9.8 78.87-6.58 77.45-3.35 74.7-1.33 71.95 0.7 68.2 0.7L68.2 0.7Q65.2 0.7 62.67-0.78 60.15-2.25 58.7-4.8 57.25-7.35 57.25-10.45L57.25-10.45Q57.25-15.9 60.47-19.9 63.7-23.9 68.9-25.45L68.9-25.45ZM96.39-25.45L97.29-24.4Q93.54-22 91.39-19.05 89.24-16.1 89.24-12.1L89.24-12.1Q89.24-9.85 90.19-7.58 91.14-5.3 93.04-3.8 94.94-2.3 97.59-2.3L97.59-2.3Q99.74-2.3 101.42-3.3 103.09-4.3 104.02-6 104.94-7.7 104.94-9.75L104.94-9.75Q104.94-12.1 103.52-14.55 102.09-17 99.79-18.7 97.49-20.4 95.09-20.6L95.09-20.6Q96.09-21.6 97.49-22.7 98.89-23.8 100.34-24.85L100.34-24.85Q103.79-23.7 105.79-20.48 107.79-17.25 107.79-13.3L107.79-13.3Q107.79-9.8 106.37-6.58 104.94-3.35 102.19-1.33 99.44 0.7 95.69 0.7L95.69 0.7Q92.69 0.7 90.17-0.78 87.64-2.25 86.19-4.8 84.74-7.35 84.74-10.45L84.74-10.45Q84.74-15.9 87.97-19.9 91.19-23.9 96.39-25.45L96.39-25.45ZM130.84-26.7Q132.84-26.05 133.94-24.55 135.04-23.05 135.04-21.1L135.04-21.1Q135.04-20.05 134.77-18.8 134.49-17.55 134.04-16.65L134.04-16.65 125.34 0.55Q125.24 0.65 124.92 0.75 124.59 0.85 124.34 0.85L124.34 0.85Q123.94 0.85 123.57 0.7 123.19 0.55 123.14 0.4L123.14 0.4 114.49-18.5Q113.24-20.8 111.89-20.8L111.89-20.8Q111.39-20.8 110.97-20.48 110.54-20.15 110.39-20.05L110.39-20.05 109.94-20.6Q110.54-22.5 112.17-23.75 113.79-25 115.44-25L115.44-25Q116.39-25 117.12-23.75 117.84-22.5 118.29-21.33 118.74-20.15 118.89-19.8L118.89-19.8 125.89-4.25 130.34-13.3Q130.39-13.45 130.77-14.4 131.14-15.35 131.14-16.25L131.14-16.25Q131.14-19.95 127.14-21.8L127.14-21.8 130.84-26.7ZM159.94-25.7L159.94-2.7Q159.94 2 158.06 6.1 156.19 10.2 153.09 12.65 149.99 15.1 146.49 15.1L146.49 15.1Q145.14 15.1 143.94 14.7 142.74 14.3 141.44 13.35L141.44 13.35 144.94 8.9Q145.99 9.95 147.41 10.6 148.84 11.25 150.09 11.25L150.09 11.25Q151.64 11.25 152.89 9.4 154.14 7.55 154.86 4.3 155.59 1.05 155.59-3.05L155.59-3.05Q155.59-12.35 155.64-15L155.64-15 155.64-18 155.34-18Q151.24 0.6 144.69 0.6L144.69 0.6Q143.24 0.6 142.54 0.03 141.84-0.55 141.59-2.05 141.34-3.55 141.34-6.6L141.34-6.6 141.34-20.7Q141.34-21.5 140.94-22.05 140.54-22.6 139.94-22.6L139.94-22.6Q138.69-22.6 137.29-20.55L137.29-20.55 136.49-21.35Q137.59-23.7 138.66-24.55 139.74-25.4 141.79-25.4L141.79-25.4Q143.79-25.4 144.79-24.13 145.79-22.85 145.79-20.4L145.79-20.4 145.79-6.75Q145.79-4.9 146.84-4.9L146.84-4.9Q148.09-4.9 150.04-8.3 151.99-11.7 153.49-16.18 154.99-20.65 154.99-23.45L154.99-23.45 159.94-25.7Z" opacity="1" transform="matrix(1,0,0,1,0,0)" fill="#ffffff" class="wordmark-text-0" data-fill-palette-color="primary" id="text-0"></path></svg></g></svg></g></svg></g></svg></g></svg></g><defs></defs></svg><rect width="395.52" height="128.75065231158962" fill="none" stroke="none" visibility="hidden"></rect></g></svg></g></svg>